<svg viewBox="0 0 32 32" xmlns="http://www.w3.org/2000/svg"><path d="m11.40625 6.96875c-.828125-.015625-1.515625.15625-1.9375.28125-.011719 0-.019531 0-.03125 0l-2.5.78125c-2.933594.902344-4.9375 3.621094-4.9375 6.6875v5.28125c0 3.855469 3.144531 7 7 7h9.90625c1.21875.027344 2.398438-.6875 2.875-1.875.300781-.753906.257813-1.546875-.03125-2.25.613281-.324219 1.132813-.847656 1.40625-1.53125.3125-.785156.261719-1.621094-.0625-2.34375h3.90625c1.644531 0 3-1.355469 3-3s-1.355469-3-3-3h-1.53125l.40625-.125c1.574219-.476562 2.476563-2.175781 2-3.75-.476562-1.574219-2.175781-2.476562-3.75-2l-8.4375 2.59375c-.074219-.1875-.160156-.390625-.28125-.59375-.5-.835937-1.511719-1.78125-3.125-2.0625-.300781-.050781-.597656-.089844-.875-.09375zm13.71875 2.03125c.390625.042969.722656.3125.84375.71875.164063.539063-.148437 1.085938-.6875 1.25l-6.84375 2.0625.34375 1.125v.84375h8.21875c.566406 0 1 .433594 1 1s-.433594 1-1 1h-6.59375l-2.625-1.03125c-.378906-.152344-.769531-.226562-1.15625-.21875l-.53125-4.09375 8.625-2.625c.136719-.042969.277344-.046875.40625-.03125zm-13.75.03125c.191406 0 .390625 0 .5625.03125 1.074219.1875 1.488281.65625 1.75 1.09375s.28125.75.28125.75v.0625l.84375 6.4375c.007813.03125.019531.0625.03125.09375.125.527344-.191406 1.03125-.71875 1.15625-.324219.078125-.488281.035156-.65625-.0625s-.375-.304687-.53125-.75l-1.25-4.84375c-.078125-.296875-.289062-.539062-.566406-.660156-.28125-.121094-.601563-.109375-.871094.035156l-1.65625.90625c-.484375.265625-.660156.875-.390625 1.359375.265625.484375.875.660156 1.359375.390625l.5-.28125.96875 3.6875c.007813.03125.019531.0625.03125.09375.269531.773438.730469 1.394531 1.375 1.78125.527344.316406 1.140625.4375 1.75.375-.316406.292969-.578125.667969-.75 1.09375-.457031 1.144531-.167969 2.402344.65625 3.21875h-5.09375c-2.773437 0-5-2.226562-5-5v-5.28125c0-2.199219 1.429688-4.132812 3.53125-4.78125l2.5-.75c.203125-.0625.773438-.15625 1.34375-.15625zm5.4375 8.75c.074219.011719.144531 0 .21875.03125l3.71875 1.5c.523438.210938.773438.757813.5625 1.28125-.210937.523438-.789062.773438-1.3125.5625l-3.71875-1.46875c-.054687-.019531-.078125-.066406-.125-.09375.394531-.507812.648438-1.148437.65625-1.8125zm-.625 4.125c.132813 0 .273438.011719.40625.0625l1.34375.53125 1.3125.53125.125.03125c.523438.210938.773438.789063.5625 1.3125-.152344.382813-.492187.605469-.875.625-.011719 0-.019531 0-.03125 0-.132812.003906-.273437-.011719-.40625-.0625l-2.78125-1.125c-.523437-.210937-.773437-.789062-.5625-1.3125.105469-.261719.296875-.429687.53125-.53125.117188-.050781.242188-.0625.375-.0625z"/></svg>