<svg viewBox="0 0 32 32" xmlns="http://www.w3.org/2000/svg"><path d="m9 4c-1.609375 0-2.894531 1.175781-3.71875 2.71875s-1.28125 3.566406-1.28125 5.78125v15.5h16v-8.625c.78125.964844 1.804688 1.625 3 1.625 1.609375 0 2.894531-1.175781 3.71875-2.71875s1.28125-3.566406 1.28125-5.78125-.457031-4.238281-1.28125-5.78125-2.109375-2.71875-3.71875-2.71875zm0 2h10.71875c-.15625.226563-.304687.46875-.4375.71875-.824219 1.542969-1.28125 3.566406-1.28125 5.78125 0 .171875.027344.332031.03125.5h-.03125v13h-12v-13.5c0-1.925781.4375-3.671875 1.0625-4.84375s1.339844-1.65625 1.9375-1.65625zm14 0c.597656 0 1.3125.484375 1.9375 1.65625s1.0625 2.917969 1.0625 4.84375-.4375 3.671875-1.0625 4.84375-1.339844 1.65625-1.9375 1.65625-1.3125-.484375-1.9375-1.65625-1.0625-2.917969-1.0625-4.84375.4375-3.671875 1.0625-4.84375 1.339844-1.65625 1.9375-1.65625zm0 4c-.550781 0-1 1.121094-1 2.5s.449219 2.5 1 2.5 1-1.121094 1-2.5-.449219-2.5-1-2.5zm-14 3c-.550781 0-1 .449219-1 1s.449219 1 1 1 1-.449219 1-1-.449219-1-1-1zm3 0c-.550781 0-1 .449219-1 1s.449219 1 1 1 1-.449219 1-1-.449219-1-1-1zm3 0c-.550781 0-1 .449219-1 1s.449219 1 1 1 1-.449219 1-1-.449219-1-1-1z"/></svg>